<?xml version="1.0" encoding="UTF-8" standalone="no"?>
<!-- Created with Inkscape (http://www.inkscape.org/) -->

<svg
   width="200"
   height="200"
   viewBox="0 0 52.916665 52.916668"
   version="1.1"
   id="svg5"
   inkscape:version="1.1.2 (b8e25be833, 2022-02-05)"
   sodipodi:docname="logo.svg"
   inkscape:export-filename="C:\Users\marco\github\comPortScanner\assets\logo\logo.png"
   inkscape:export-xdpi="192"
   inkscape:export-ydpi="192"
   xmlns:inkscape="http://www.inkscape.org/namespaces/inkscape"
   xmlns:sodipodi="http://sodipodi.sourceforge.net/DTD/sodipodi-0.dtd"
   xmlns="http://www.w3.org/2000/svg"
   xmlns:svg="http://www.w3.org/2000/svg">
  <sodipodi:namedview
     id="namedview7"
     pagecolor="#ffffff"
     bordercolor="#666666"
     borderopacity="1.0"
     inkscape:pageshadow="2"
     inkscape:pageopacity="0.0"
     inkscape:pagecheckerboard="0"
     inkscape:document-units="px"
     showgrid="false"
     units="px"
     inkscape:zoom="3.2554688"
     inkscape:cx="132.39261"
     inkscape:cy="103.82529"
     inkscape:window-width="1920"
     inkscape:window-height="986"
     inkscape:window-x="-11"
     inkscape:window-y="-11"
     inkscape:window-maximized="1"
     inkscape:current-layer="layer1" />
  <defs
     id="defs2">
    <rect
       x="15.051596"
       y="115.80513"
       width="162.18862"
       height="71.571873"
       id="rect2276" />
  </defs>
  <g
     inkscape:label="Layer 1"
     inkscape:groupmode="layer"
     id="layer1">
    <rect
       style="fill:#0066cc;fill-opacity:1;stroke:#0066cc;stroke-width:7.93749997;stroke-linecap:round;stroke-linejoin:round;stroke-miterlimit:3;stroke-opacity:1;stroke-dasharray:none"
       id="rect853"
       width="44.979164"
       height="44.979168"
       x="3.9687498"
       y="3.96875" />
  </g>
  <g
     inkscape:groupmode="layer"
     id="layer2"
     inkscape:label="Version1"
     style="display:none">
    <path
       d="m 14.516898,3.8306247 h 23.818645 v 4.7637218 h 4.763722 V 15.739938 H 35.953673 V 30.031121 H 16.898768 V 15.739938 H 9.7531762 V 8.5943465 H 14.516898 V 3.8306247 M 38.335543,18.121808 h 4.763722 V 30.031121 H 38.335543 V 18.121808 M 24.04436,32.412991 h 4.763722 V 49.086036 H 24.04436 V 32.412991 M 9.7531762,18.121808 H 14.516898 V 30.031121 H 9.7531762 Z"
       id="path1989"
       style="fill:#ffffff;stroke:#000000;stroke-width:0.264583;stroke-miterlimit:3;stroke-dasharray:none;stroke-opacity:1" />
    <g
       aria-label="?"
       id="text2651"
       style="font-size:28.4512px;line-height:24.7593px;stroke-width:0.188576"
       transform="matrix(1.5004205,0,0,1.3120161,-12.348353,-1.5251358)">
      <path
         d="m 31.166932,12.054274 c 0,0.703871 -0.18986,1.310496 -0.56958,1.819876 l -3.167419,4.278794 v 4.084303 h -3.153526 v -3.695322 c 0,-0.731655 0.18986,-1.356804 0.569579,-1.875445 l 3.125743,-4.237117 V 8.2755985 H 23.734844 V 12.234872 H 20.553533 V 7.5670969 c 0,-1.33365 0.662194,-2.000475 1.986583,-2.000475 h 6.626341 c 1.33365,0 2.000475,0.666825 2.000475,2.000475 z"
         style="font-weight:bold;font-stretch:condensed;font-family:'Agency FB';-inkscape-font-specification:'Agency FB Bold Condensed';stroke-width:0.188576"
         id="path3916"
         sodipodi:nodetypes="sccccsccccccsssss" />
    </g>
  </g>
  <g
     inkscape:groupmode="layer"
     id="layer3"
     inkscape:label="Version2"
     style="display:inline">
    <g
       style="fill:#ffffff;stroke:#000000;stroke-width:0.34869913;stroke-miterlimit:4;stroke-dasharray:none;stroke-opacity:1"
       id="g846"
       transform="matrix(2.2763177,0,0,2.2763177,-0.85582501,-11.960809)">
      <path
         d="M 2.23177,10.3863 C 1.82042,8.65835 3.13073,6.99951 4.90701,6.99951 H 19.0915 c 1.777,0 3.0874,1.65999 2.6749,3.38839 l -1.0743,4.5013 c -0.2955,1.2381 -1.402,2.1116 -2.6749,2.1116 H 5.97854 c -1.27347,0 -2.38034,-0.8743 -2.67525,-2.1131 z"
         fill="#212121"
         id="path837"
         style="fill:#ffffff;stroke:#000000;stroke-width:0.34869913;stroke-miterlimit:4;stroke-dasharray:none;stroke-opacity:1"
         sodipodi:nodetypes="cssccsscc" />
      <path
         d="m 6.2449468,11.424719 c 0.4767009,0 0.8631513,-0.386462 0.8631513,-0.863151 0,-0.476689 -0.3864504,-0.8631508 -0.8631513,-0.8631508 -0.4767015,0 -0.8631519,0.3864618 -0.8631519,0.8631508 0,0.476689 0.3864504,0.863151 0.8631519,0.863151 z m 3.7402885,-0.863151 c 0,-0.476689 -0.3864165,-0.8631508 -0.8631167,-0.8631508 -0.4767013,0 -0.8631517,0.3864618 -0.8631517,0.8631508 0,0.476689 0.3864504,0.863151 0.8631517,0.863151 0.4767002,0 0.8631167,-0.386462 0.8631167,-0.863151 z m -2.301703,3.740324 c 0.4767017,0 0.8631517,-0.386462 0.8631517,-0.863151 0,-0.476691 -0.38645,-0.863153 -0.8631517,-0.863153 -0.4767012,0 -0.8631511,0.386462 -0.8631511,0.863153 0,0.476689 0.3864499,0.863151 0.8631511,0.863151 z m 3.7402897,-0.863151 c 0,-0.476691 -0.386463,-0.863153 -0.863153,-0.863153 -0.476689,0 -0.8631507,0.386462 -0.8631507,0.863153 0,0.476689 0.3864617,0.863151 0.8631507,0.863151 0.47669,0 0.863153,-0.386462 0.863153,-0.863151 z m 2.01402,0.863151 c 0.476689,0 0.863151,-0.386462 0.863151,-0.863151 0,-0.476691 -0.386462,-0.863153 -0.863151,-0.863153 -0.476691,0 -0.863153,0.386462 -0.863153,0.863153 0,0.476689 0.386462,0.863151 0.863153,0.863151 z m 3.740322,-0.863151 c 0,-0.476691 -0.386462,-0.863153 -0.863151,-0.863153 -0.476689,0 -0.863151,0.386462 -0.863151,0.863153 0,0.476689 0.386462,0.863151 0.863151,0.863151 0.476689,0 0.863151,-0.386462 0.863151,-0.863151 z m -5.178908,-2.014022 c 0.476689,0 0.863152,-0.386462 0.863152,-0.863151 0,-0.476689 -0.386463,-0.8631508 -0.863152,-0.8631508 -0.47669,0 -0.863153,0.3864618 -0.863153,0.8631508 0,0.476689 0.386463,0.863151 0.863153,0.863151 z m 3.740323,-0.863151 c 0,-0.476689 -0.386461,-0.8631508 -0.863151,-0.8631508 -0.476691,0 -0.863152,0.3864618 -0.863152,0.8631508 0,0.476689 0.386461,0.863151 0.863152,0.863151 0.47669,0 0.863151,-0.386462 0.863151,-0.863151 z m 2.014019,0.863151 c 0.476691,0 0.863151,-0.386462 0.863151,-0.863151 0,-0.476689 -0.38646,-0.8631508 -0.863151,-0.8631508 -0.476689,0 -0.863151,0.3864618 -0.863151,0.8631508 0,0.476689 0.386462,0.863151 0.863151,0.863151 z"
         style="fill:#000000;stroke:#000000;stroke-width:0.34869913;stroke-miterlimit:4;stroke-dasharray:none;stroke-opacity:1;fill-opacity:1"
         id="path4732" />
    </g>
    <text
       xml:space="preserve"
       transform="matrix(0.4590375,0,0,0.60758345,-3.4421889,-38.757117)"
       id="text2274"
       style="font-style:normal;font-variant:normal;font-weight:bold;font-stretch:normal;font-size:40px;line-height:34.8094px;font-family:'Gill Sans MT';-inkscape-font-specification:'Gill Sans MT Bold';white-space:pre;shape-inside:url(#rect2276);fill:#ffffff;stroke:#000004;stroke-width:1.50298;stroke-miterlimit:4;stroke-dasharray:none;stroke-opacity:1"><tspan
         x="15.050781"
         y="143.21999"
         id="tspan9123"><tspan
           style="stroke-width:1.93937"
           id="tspan9121">COM</tspan></tspan></text>
  </g>
</svg>
